<svg width="88" height="81" xmlns="http://www.w3.org/2000/svg">

 <g>
  <title>background</title>
  <rect fill="none" id="canvas_background" height="83" width="90" y="-1" x="-1"/>
 </g>
 <g>
  <title>Layer 1</title>
  <path id="svg_6" d="m12.07547,9.02528l32.2,64.64l32.44,-64.64l-64.64,0zm36,13l3.75,0l0,3.72l-3.75,0l0,-3.72zm-7.46,15l-3.71,0l0,-3.78l3.74,0l-0.03,3.78zm0,-5.62l-3.71,0l0,-3.78l3.74,0l-0.03,3.78zm0,-5.62l-3.71,0l0,-3.78l3.74,0l-0.03,3.78zm5.62,16.87l-3.71,0l0,-3.79l3.74,0l-0.03,3.79zm0,-5.63l-3.71,0l0,-3.78l3.74,0l-0.03,3.78zm0,-5.62l-3.71,0l0,-3.78l3.74,0l-0.03,3.78zm0,-5.62l-3.71,0l0,-3.78l3.74,0l-0.03,3.78zm1.84,1.84l3.75,0l0,3.74l-3.75,0l0,-3.74zm0,9.36l0,-3.74l3.74,0l0,3.74l-3.74,0z"/>
 </g>
</svg>